# xmcd
#
# Track frame offsets:
#	150
#	15948
#	33428
#	49227
#	67765
#	79962
#	97339
#	116330
#	132899
#	150795
#	168573
#	183510
#	200990
#	219174
#	241488
#	251369
#	261932
#	277483
#
# Disc length: 3991 seconds
#
# Revision: 2
# Processed by: cddbd v1.5.2PL0 Copyright (c) Steve Scherf et al.
# Submitted via: audiograbber 1.83.01
#
DISCID=fe0f9512
DTITLE=Various Artist - CDXMAS 1036
DYEAR=2016
DGENRE=Country Christmas
TTITLE0=Cyndi Lauper w. Alison Krauss - Hard Candy Christmas
TTITLE1=Kacey Musgraves - Present Without A Bow
TTITLE2=John Oates ft. The Time Jumpers - Santa Be Good
TTITLE3=Ray Stevens - Mary and Joseph and the Baby and Me
TTITLE4=Canton Junction - A Canton Christmas
TTITLE5=Vince Vance and The Valiants - All I Want For Christmas
TTITLE6=Serene and Pearl - Bread Of Life
TTITLE7=Robbie Robinson - Carolina Christmas
TTITLE8=Vince Vance and The Valiants - Christmas State Of Mind
TTITLE9=Emily Vance - Christmas Stays The Same
TTITLE10=Colby Dee - Christmas Time To Me
TTITLE11=Allie Louise - Hometown Christmas
TTITLE12=Josie Brandon - Let The Little Angels Whisper
TTITLE13=Marthia Sides - O Holy Night
TTITLE14=Olivia Lane - Rockin Around The Christmas Tree
TTITLE15=Cody Joe Hodges - Tangled In The Christmas Lights
TTITLE16=Greg Sterling - That Better Be Santa Claus
TTITLE17=NewSong - The Christmas Shoes
EXTD=
EXTT0=
EXTT1=
EXTT2=
EXTT3=
EXTT4=
EXTT5=
EXTT6=
EXTT7=
EXTT8=
EXTT9=
EXTT10=
EXTT11=
EXTT12=
EXTT13=
EXTT14=
EXTT15=
EXTT16=
EXTT17=
PLAYORDER=
